<?xml version="1.0" encoding="UTF-8"?>
<svg width="16px" height="13px" viewBox="0 0 16 13" version="1.1" xmlns="http://www.w3.org/2000/svg" xmlns:xlink="http://www.w3.org/1999/xlink">
    <title>animation</title>
    <g id="Page-1" stroke="none" stroke-width="1" fill="none" fill-rule="evenodd">
        <g id="animation" fill="#FFFFFF" fill-rule="nonzero">
            <path d="M0,0 L0,13 L16,13 L16,0 L0,0 Z M1,1 L15,1 L15,8 L1,8 L1,1 Z M6.002,2.154 L6.002,6.894 L6.75,6.459 L10.07,4.523 L6.002,2.154 Z M6.998,3.894 L8.078,4.525 L6.998,5.155 L6.998,3.895 L6.998,3.894 Z M1,9 L15,9 L15,10.004 L4,10.004 L4,9.504 L3,9.504 L3,10.004 L1,10.004 L1,9 Z M1,11.004 L3,11.004 L3,11.504 L4,11.504 L4,11.004 L15,11.004 L15,12 L1,12 L1,11.004 Z" id="Shape"></path>
        </g>
    </g>
</svg>