<?xml version="1.0" encoding="UTF-8"?>
<svg width="23px" height="41px" viewBox="0 0 23 41" version="1.1" xmlns="http://www.w3.org/2000/svg" xmlns:xlink="http://www.w3.org/1999/xlink">
    <title>health-application</title>
    <g id="Page-1" stroke="none" stroke-width="1" fill="none" fill-rule="evenodd">
        <g id="health-application" transform="translate(0.966491, 0.973962)">
            <path d="M4.36315416e-06,3.03107825 C-0.00279126003,1.37421825 1.33820874,0.0288782488 2.99500874,0.0261682488 L18.9672087,4.11812648e-06 C20.6241087,-0.00271175122 21.9694087,1.33823825 21.9721087,2.99508825 L22.0278128,36.9819382 C22.0305087,38.6388382 20.6896087,39.9841382 19.0327087,39.9868382 L3.06050874,40.0130423 C1.40370874,40.0157382 0.05830874,38.6748382 0.05560874,37.0179382 L4.36315416e-06,3.03107825 Z M1.99910603,4.02771825 C1.99730874,2.92314825 2.89120874,2.02624825 3.99580874,2.02443825 L17.9730087,2.00154551 C19.0776087,1.99973825 19.9745087,2.89369825 19.9763087,3.99826825 L20.0205115,30.9881382 C20.0223087,32.0926382 19.1284087,32.9895382 18.0238087,32.9913382 L4.04660874,33.014241 C2.94200874,33.0160382 2.04510874,32.1221382 2.04330874,31.0175382 L1.99910603,4.02771825 Z M11.0434087,38.000541 C12.1466087,37.9987382 13.0394087,37.1021382 13.0376115,35.9979382 C13.0358087,34.8937382 12.1400087,34.0000382 11.0368087,34.0018355 C9.93370874,34.0036382 9.04080874,34.9002382 9.04260602,36.0044382 C9.04440874,37.1086382 9.94020874,38.0023382 11.0434087,38.000541 Z" id="Shape" fill="#FCFCFC"></path>
            <path d="M10.2258087,23.5657382 C8.63680874,22.2497382 7.33050874,21.1678382 6.41930874,20.1503382 C5.50990874,19.1348382 5.01010874,18.2007382 5.00930607,17.1828382 C5.00800874,15.5266382 6.42720874,14.2260382 8.23770874,14.2245382 C9.26180874,14.2237382 10.2476087,14.6597382 10.8907087,15.3495382 L11.0079087,15.4752382 L11.1249087,15.3493382 C11.7669087,14.6585382 12.7519087,14.2208382 13.7761087,14.2200344 C15.5865087,14.2185382 17.0079087,15.5167382 17.0093061,17.1730382 C17.0101087,18.1908382 16.5120087,19.1258382 15.6042087,20.1435382 C14.6977087,21.1597382 13.3989087,22.2413382 11.8196087,23.5565382 L11.8037087,23.5697382 L11.0155087,24.2223382 L10.2258087,23.5657382 Z" id="Path" fill="#EA4343" fill-rule="nonzero"></path>
        </g>
    </g>
</svg>